STARTFONT 2.1
COMMENT Silicon Graphics FREE font
FONT -SGI-Rock-Medium-R-Normal--36-360-72-72-P-198-ISO8859-1
SIZE 36 72 72
FONTBOUNDINGBOX 27 36 1 -11
STARTPROPERTIES 22
_DEC_DEVICE_FONTNAMES "FM=Rock"
FONTNAME_REGISTRY ""
FOUNDRY "SGI"
FAMILY_NAME "Rock"
WEIGHT_NAME "Medium"
SLANT "R"
SETWIDTH_NAME "Normal"
ADD_STYLE_NAME ""
PIXEL_SIZE 36
POINT_SIZE 360
RESOLUTION_X 72
RESOLUTION_Y 72
SPACING "P"
AVERAGE_WIDTH 198
CHARSET_REGISTRY "ISO8859"
CHARSET_ENCODING "1"
CHARSET_COLLECTIONS "ASCII ISO8859-1"
FULL_NAME "Rock"
CAP_HEIGHT 27
FONT_ASCENT 25
FONT_DESCENT 11
X_HEIGHT 18
ENDPROPERTIES
CHARS 190
STARTCHAR space
ENCODING 32
SWIDTH 400 0
DWIDTH 14 0
BBX 1 1 0 0
BITMAP
00
ENDCHAR
STARTCHAR exclam
ENCODING 33
SWIDTH 258 0
DWIDTH 9 0
BBX 6 27 2 -2
BITMAP
78
f8
f8
78
78
78
78
78
78
78
78
78
78
78
78
78
7c
7c
7c
7c
78
00
3c
7c
7c
7c
3c
ENDCHAR
STARTCHAR quotedbl
ENCODING 34
SWIDTH 455 0
DWIDTH 16 0
BBX 13 9 2 16
BITMAP
1e40
3e70
3ef8
3cf0
7df0
79f0
fbe0
3be0
0040
ENDCHAR
STARTCHAR numbersign
ENCODING 35
SWIDTH 539 0
DWIDTH 19 0
BBX 16 20 2 2
BITMAP
061e
07de
07de
079e
07bf
7fff
ffff
7fff
7fff
7f7c
1f7e
1ffe
7ffe
7ffe
7ffe
7ef0
3df0
3df0
7de0
0860
ENDCHAR
STARTCHAR dollar
ENCODING 36
SWIDTH 562 0
DWIDTH 20 0
BBX 16 30 3 -5
BITMAP
1f20
1ff0
1ff0
0ff0
1ff0
3f80
7e00
7c00
f800
f800
f800
7f00
7fc0
3ff0
0ff8
03fe
00fe
003f
000f
007e
03fe
3ffc
fff8
ffe0
ffc0
f3c0
03c0
07c0
07c0
0080
ENDCHAR
STARTCHAR percent
ENCODING 37
SWIDTH 908 0
DWIDTH 33 0
BBX 27 27 1 -2
BITMAP
00000600
00000700
03800f80
0fe00f80
3ff01f00
7fe03e00
7fdc3e00
783c7c00
f83c7c00
787cf800
7ffdf000
7ff9f100
3ff3e7c0
1fe7dfe0
0787ffe0
000fbfe0
000ffce0
001f7ce0
003e78e0
003ef8e0
007cf9e0
007c7fe0
00f87fc0
01f07fc0
01f01f80
00e00e00
00600000
ENDCHAR
STARTCHAR ampersand
ENCODING 38
SWIDTH 656 0
DWIDTH 24 0
BBX 20 27 2 -2
BITMAP
004000
00e000
01e000
07e000
0fe000
0f8000
1f0000
1f0000
1e0000
1f0000
1f0000
0f8000
0fc000
1fe000
3ff000
7ff800
7cfc40
787fe0
783ff0
f81ff0
780fc0
7c3fc0
7fffe0
3ffff0
1ff9e0
0ff0c0
018000
ENDCHAR
STARTCHAR quoteright
ENCODING 39
SWIDTH 291 0
DWIDTH 10 0
BBX 7 9 2 16
BITMAP
1e
3e
3e
3c
7c
7c
78
f8
38
ENDCHAR
STARTCHAR parenleft
ENCODING 40
SWIDTH 420 0
DWIDTH 15 0
BBX 11 30 2 -5
BITMAP
07c0
07c0
0f80
0f80
0f00
1f00
1e00
3e00
3c00
7c00
7800
7800
7800
7800
f800
7800
7800
7c00
7c00
3c00
3e00
1f00
1f00
0f80
0fc0
07e0
03e0
01e0
01c0
0080
ENDCHAR
STARTCHAR parenright
ENCODING 41
SWIDTH 416 0
DWIDTH 15 0
BBX 11 30 3 -5
BITMAP
7c00
7c00
3e00
3e00
1f00
1f00
0f80
0f80
0780
07c0
03c0
03c0
03c0
03e0
03e0
03e0
03c0
07c0
07c0
0780
0f80
1f80
1f00
3e00
7c00
fc00
f800
f000
7000
2000
ENDCHAR
STARTCHAR asterisk
ENCODING 42
SWIDTH 586 0
DWIDTH 21 0
BBX 16 18 3 2
BITMAP
03c0
07c0
07c0
43d0
73f8
fffc
fffc
fff8
3ff0
0ffc
3fff
7fff
3fff
3fef
13e0
03e0
03e0
00c0
ENDCHAR
STARTCHAR plus
ENCODING 43
SWIDTH 630 0
DWIDTH 23 0
BBX 19 17 2 2
BITMAP
003000
00f000
00f000
00f000
00f000
00f000
40f000
7fffe0
ffffe0
ffffe0
7fffe0
00f020
00f000
01f000
01f000
01f000
00f000
ENDCHAR
STARTCHAR comma
ENCODING 44
SWIDTH 338 0
DWIDTH 12 0
BBX 8 11 3 -7
BITMAP
1f
1f
1f
1f
1f
3e
7e
fc
f8
f0
60
ENDCHAR
STARTCHAR minus 
ENCODING 45
SWIDTH 608 0
DWIDTH 22 0
BBX 18 5 2 7
BITMAP
7fffc0
ffffc0
ffffc0
ffffc0
ffff00
ENDCHAR
STARTCHAR period
ENCODING 46
SWIDTH 237 0
DWIDTH 9 0
BBX 5 6 2 -2
BITMAP
78
78
78
f8
f8
10
ENDCHAR
STARTCHAR slash
ENCODING 47
SWIDTH 862 0
DWIDTH 31 0
BBX 25 30 3 -5
BITMAP
00000780
00000f80
00001f80
00003f00
00003e00
00007c00
0000fc00
0001f800
0001f000
0003e000
0007c000
000fc000
001f8000
001f0000
003e0000
007c0000
00f80000
01f80000
01f00000
03e00000
07c00000
0f800000
1f800000
3f000000
3e000000
7c000000
f8000000
f8000000
70000000
20000000
ENDCHAR
STARTCHAR zero
ENCODING 48
SWIDTH 657 0
DWIDTH 24 0
BBX 20 24 2 0
BITMAP
001000
01fc00
07ff00
0fff80
1fffc0
3f07e0
3e03e0
7c01f0
7c01f0
7801f0
7800f0
7800f0
f800f0
f800f0
7801f0
7801f0
7c01e0
7c03e0
3e07c0
3f0fc0
1fff80
0fff00
07fe00
01f800
ENDCHAR
STARTCHAR one
ENCODING 49
SWIDTH 373 0
DWIDTH 13 0
BBX 9 25 3 -1
BITMAP
0f80
0f80
1f80
3f80
3f80
7f80
ff80
ff80
f780
6780
0780
0780
0780
0780
0780
0780
0780
0780
0780
0780
0780
0780
0780
0780
0780
ENDCHAR
STARTCHAR two
ENCODING 50
SWIDTH 568 0
DWIDTH 20 0
BBX 17 25 2 -1
BITMAP
300000
3c0000
7e0000
7f8000
3fc000
0fe000
07f800
01f800
00fc00
007e00
003e00
001e00
001e00
001e00
003e00
007e00
00fc00
01f800
07f000
1fe000
7fc000
ffff80
ffff80
7fff80
7fff80
ENDCHAR
STARTCHAR three
ENCODING 51
SWIDTH 464 0
DWIDTH 17 0
BBX 12 27 3 -3
BITMAP
6000
fc00
ff00
ff80
3fc0
0fe0
03f0
01f0
00f0
01f0
07f0
3fe0
7fc0
7f80
7f00
7fc0
3fe0
0fe0
03f0
00f0
03f0
0fe0
3fc0
ff80
ff00
f800
e000
ENDCHAR
STARTCHAR four
ENCODING 52
SWIDTH 707 0
DWIDTH 25 0
BBX 21 25 3 -1
BITMAP
000f80
000f80
001f80
003f80
007f80
007f80
00ff80
01ff80
03f780
03e7c0
07c7c0
0f87c0
1f87c0
1f07c0
3e07c0
7c0ff0
fffff0
fffff8
fffff8
3fffc0
3c07c0
0007c0
0007c0
0007c0
0007c0
ENDCHAR
STARTCHAR five
ENCODING 53
SWIDTH 563 0
DWIDTH 20 0
BBX 17 27 2 -4
BITMAP
ffff80
ffff80
ffff80
7fff80
7c0000
780000
7f0000
7fe000
7ff000
7ff800
01fc00
007c00
003e00
003e00
003e00
007c00
007c00
00f800
01f000
03f000
07e000
1fc000
3f8000
7f0000
7c0000
380000
100000
ENDCHAR
STARTCHAR six
ENCODING 54
SWIDTH 541 0
DWIDTH 19 0
BBX 16 28 2 -3
BITMAP
0060
00f0
00f0
01f0
01e0
03e0
03c0
07c0
0780
0f80
0fc0
1ff0
1ff8
3ffc
3c7c
7c3e
7c1f
781f
781f
780f
f81f
781f
787e
7ffe
3ffc
3ff8
0fe0
0300
ENDCHAR
STARTCHAR seven
ENCODING 55
SWIDTH 554 0
DWIDTH 20 0
BBX 17 24 2 -1
BITMAP
ffff80
ffff80
ffff80
ffff80
000f00
001f00
001e00
003e00
003c00
007c00
007800
00f800
00f000
01f000
01f000
03e000
03e000
07c000
07c000
0f8000
0f8000
1f0000
0f0000
020000
ENDCHAR
STARTCHAR eight
ENCODING 56
SWIDTH 526 0
DWIDTH 19 0
BBX 16 23 2 0
BITMAP
0fe0
1ff0
3ff8
3ffc
7c7c
7c3c
783c
783c
7ffc
7ffc
3ff8
3ffc
3ffe
7efe
fc1f
f81f
f81f
f81e
7c7e
7ffe
3ffc
1ff8
0fe0
ENDCHAR
STARTCHAR nine
ENCODING 57
SWIDTH 518 0
DWIDTH 19 0
BBX 15 26 2 -2
BITMAP
03e0
0ff0
1ff8
3ffc
7f7c
783e
781e
781e
f81e
783e
7c3e
3e3c
3e3c
1f7c
0ffc
07f8
03f0
01f0
03e0
03e0
07c0
0f80
1f80
1f00
1e00
0c00
ENDCHAR
STARTCHAR colon
ENCODING 58
SWIDTH 243 0
DWIDTH 9 0
BBX 5 16 2 -2
BITMAP
38
f8
f8
78
78
78
00
00
00
00
78
78
78
78
78
18
ENDCHAR
STARTCHAR semicolon
ENCODING 59
SWIDTH 338 0
DWIDTH 12 0
BBX 8 21 3 -7
BITMAP
1e
1f
1f
1f
0e
00
00
00
00
00
1f
1f
1f
1f
1f
3e
7e
fc
f8
f0
60
ENDCHAR
STARTCHAR less
ENCODING 60
SWIDTH 494 0
DWIDTH 18 0
BBX 14 23 2 0
BITMAP
00e0
00f0
01f0
03e0
07e0
07c0
0f80
1f00
3f00
3e00
7c00
fc00
7e00
3f00
1f80
0fc0
07e0
03f0
01f8
00fc
007c
0038
0010
ENDCHAR
STARTCHAR equal
ENCODING 61
SWIDTH 562 0
DWIDTH 20 0
BBX 17 12 2 5
BITMAP
7c0000
ffff80
ffff80
ffff80
7fff80
000000
000000
7fff00
7fff00
7fff00
7fff00
7fff00
ENDCHAR
STARTCHAR greater
ENCODING 62
SWIDTH 476 0
DWIDTH 17 0
BBX 12 22 3 1
BITMAP
2000
7000
f800
fc00
7e00
3f00
1f80
0fc0
07e0
03f0
01f0
03f0
07e0
0fc0
1f80
1f00
3e00
7c00
f800
f000
7000
2000
ENDCHAR
STARTCHAR question
ENCODING 63
SWIDTH 444 0
DWIDTH 16 0
BBX 12 26 3 -2
BITMAP
6000
f800
fe00
ff00
7f80
1fc0
07e0
03e0
01e0
01f0
01e0
03e0
07e0
07c0
0f80
1f00
3f00
3e00
1c00
0000
0000
3c00
3c00
3c00
3c00
3c00
ENDCHAR
STARTCHAR at
ENCODING 64
SWIDTH 763 0
DWIDTH 27 0
BBX 24 27 2 -2
BITMAP
01ff00
07ff80
0fffc0
0fffe0
1f83f0
3e01f0
3e08f8
7c38f8
78fe78
78fe78
f9ff78
fbff78
fbcff8
fbc7f8
7bc7f0
7bfbf0
7bfde0
7dfc0c
7cf01f
3e003f
3f003e
1fc0fc
0ffff8
07fff8
03ffe0
00ff80
001800
ENDCHAR
STARTCHAR A
ENCODING 65
SWIDTH 803 0
DWIDTH 29 0
BBX 25 26 2 -3
BITMAP
00100000
003c0000
003e0000
007f0000
007f0000
00ff8000
00ff8000
00ffc000
01f7c000
01f3c000
03e3e000
03e1e000
03e1f000
07c3f000
07fff800
0ffff800
0ffffc00
1fffbc00
1fc03e00
3e001e00
3e001f00
7c001f00
7c000f80
f8000f80
78000780
30000400
ENDCHAR
STARTCHAR B
ENCODING 66
SWIDTH 596 0
DWIDTH 21 0
BBX 18 26 2 -2
BITMAP
ff8000
fff800
7ffe00
7fff00
79ff80
7c0f80
7c07c0
7c0f80
7c7f80
7dff00
7ffe00
7ff800
7ffc00
7ffe00
7dff00
7c3f80
7c0fc0
7c07c0
7c07c0
7c1f80
7c7f80
3fff00
3ffe00
3ff800
3fe000
3f0000
ENDCHAR
STARTCHAR C
ENCODING 67
SWIDTH 598 0
DWIDTH 22 0
BBX 18 26 2 -2
BITMAP
000700
003f00
00ff00
01ff00
07fc00
0fe000
0fc000
1f8000
3e0000
3e0000
7c0000
7c0000
780000
f80000
f80000
f80000
780000
7c0000
7e0000
3f8000
1fe000
0fff00
07ffc0
01ffc0
003fc0
0007c0
ENDCHAR
STARTCHAR D
ENCODING 68
SWIDTH 635 0
DWIDTH 23 0
BBX 19 24 2 0
BITMAP
300000
ff0000
ffc000
fff800
fffc00
fbff00
f87f80
f81f80
7807c0
7803e0
7803e0
7801e0
7801e0
7801e0
7803e0
7803c0
780fc0
781f80
787f80
7bff00
7ffc00
7ff800
7fe000
7e0000
ENDCHAR
STARTCHAR E
ENCODING 69
SWIDTH 474 0
DWIDTH 17 0
BBX 13 25 3 -1
BITMAP
7ff0
fff0
fff0
fff0
fff0
f000
f000
f000
f800
f800
f980
ff80
ff80
ff80
ff80
f800
f800
7800
7800
7800
7ff0
7ff8
7ff8
7ff0
0070
ENDCHAR
STARTCHAR F
ENCODING 70
SWIDTH 431 0
DWIDTH 16 0
BBX 12 23 2 0
BITMAP
ffe0
fff0
fff0
fff0
7ff0
7800
7800
7800
7800
7820
7fe0
7fe0
7fe0
7fe0
7c00
7c00
7c00
7c00
7c00
7c00
7c00
7c00
7c00
ENDCHAR
STARTCHAR G
ENCODING 71
SWIDTH 627 0
DWIDTH 23 0
BBX 19 24 2 -1
BITMAP
000300
000f00
001f00
007f00
00fe00
01fc00
03f000
07e000
0fc000
1f8000
3f0000
3e0000
7c01e0
7801e0
f801e0
f801e0
f801e0
f801e0
7e01e0
7ff9e0
3fffe0
1fffe0
07ffe0
00ffc0
ENDCHAR
STARTCHAR H
ENCODING 72
SWIDTH 729 0
DWIDTH 26 0
BBX 23 26 2 -3
BITMAP
f8007c
78007c
78003c
78003c
78003c
78003c
78003c
78003c
78003c
7fff3c
7ffffc
7ffffc
7ffffc
7ffffc
7c003c
7c003e
78003e
78003e
78003e
78003e
78003e
78003e
78003e
78003e
78003e
700000
ENDCHAR
STARTCHAR I
ENCODING 73
SWIDTH 242 0
DWIDTH 9 0
BBX 5 25 2 -2
BITMAP
f8
f8
f8
f8
f8
78
78
78
78
78
78
78
78
78
78
78
78
78
78
78
78
78
78
78
78
ENDCHAR
STARTCHAR J
ENCODING 74
SWIDTH 380 0
DWIDTH 14 0
BBX 9 29 3 -6
BITMAP
0780
0780
0780
0780
0780
0780
0780
0780
0780
0780
0780
0780
0780
0780
0780
0780
0780
0780
0f80
0f80
1f00
1e00
3e00
3c00
7c00
f800
f800
f000
7000
ENDCHAR
STARTCHAR K
ENCODING 75
SWIDTH 620 0
DWIDTH 22 0
BBX 18 26 2 -2
BITMAP
000800
f81c00
f83f00
f87e00
f8fc00
f9f800
fbf000
ffe000
ffc000
ff8000
7f0000
7f0000
7f8000
7fc000
7fe000
7bf000
79f000
78f800
78fc00
787e00
783f00
781f80
780fc0
7c07c0
7c0380
700100
ENDCHAR
STARTCHAR L
ENCODING 76
SWIDTH 474 0
DWIDTH 17 0
BBX 13 22 2 0
BITMAP
f000
f000
f800
f800
f800
f800
f800
f800
7800
7800
7800
7800
7800
7800
7800
7800
7800
7ff0
7ff8
7ff8
7ff8
3ff8
ENDCHAR
STARTCHAR M
ENCODING 77
SWIDTH 906 0
DWIDTH 33 0
BBX 25 25 3 0
BITMAP
03008000
03c0f000
07e1f000
07e1f000
07e3f800
07e3f800
0ff3fc00
0ff7fc00
0ff7bc00
1fffbc00
1fffbc00
1f7f3e00
1e7f3e00
3e7e1f00
3e3e1f00
3c301f00
3c001f00
7c000f00
7c000f80
78000f80
f8000f80
f8000780
f0000780
f0000780
70000380
ENDCHAR
STARTCHAR N
ENCODING 78
SWIDTH 781 0
DWIDTH 28 0
BBX 24 26 3 -2
BITMAP
f0001e
f8001e
fc001e
fe001e
ff001e
ff801e
ffc01e
f7e01e
fbf01e
f9f81e
f8f81e
f87c1e
f83e1e
f83f1f
f81f9f
780fdf
7807ff
7803ff
7801ff
7800ff
78007f
78007f
78003f
78001f
780000
400000
ENDCHAR
STARTCHAR O
ENCODING 79
SWIDTH 804 0
DWIDTH 29 0
BBX 25 25 3 -1
BITMAP
00060000
00ff8000
03ffe000
0ffff000
1ffff800
3fc0fc00
3e007c00
7c003e00
f8003e00
f8001e00
f0001f00
f0000f00
f0000f80
f8000f80
f8000f80
7c000f80
7c000f80
3e001f00
1f003f00
1fc07e00
0ffffc00
07fff800
03fff000
00ffe000
001c0000
ENDCHAR
STARTCHAR P
ENCODING 80
SWIDTH 583 0
DWIDTH 21 0
BBX 17 24 3 0
BITMAP
700000
ff0000
fff000
fff800
fffe00
fbff00
f87f00
f80f80
f80f80
f80f80
f81f00
787f00
78fe00
7bfc00
7ff800
7fe000
7f8000
7e0000
780000
780000
780000
780000
780000
780000
ENDCHAR
STARTCHAR Q
ENCODING 81
SWIDTH 794 0
DWIDTH 29 0
BBX 25 27 2 -4
BITMAP
003f8000
00fff000
03fff800
07fffc00
0ff0fe00
1f803f00
3f001f00
7e000f80
7c000f80
78000f80
f8000780
f8000780
f8000f80
f8000f80
78000f00
7c001f00
7c001f00
3e003e00
3f007e00
1f83fc00
1ffff800
07fff000
03fffc00
01ffff80
003fff80
0001ff00
00000f00
ENDCHAR
STARTCHAR R
ENCODING 82
SWIDTH 655 0
DWIDTH 24 0
BBX 19 26 3 -1
BITMAP
fe0000
ffe000
fff800
fffe00
f7fe00
f03f00
f00f80
f80f80
f80f80
f80f00
f81f00
f87e00
f9fe00
fffc00
fff000
ffe000
fff000
f9f800
78fc00
787e00
783f00
781f80
780fc0
7807e0
7803c0
7801c0
ENDCHAR
STARTCHAR S
ENCODING 83
SWIDTH 509 0
DWIDTH 18 0
BBX 14 27 3 -2
BITMAP
00c0
03e0
07e0
1fe0
3fc0
3f00
7c00
f800
f800
f000
f800
ff00
ffc0
3ff0
0ff8
03f8
007c
003c
007c
01f8
07f0
1ff0
7fc0
ff80
fe00
7800
6000
ENDCHAR
STARTCHAR T
ENCODING 84
SWIDTH 674 0
DWIDTH 24 0
BBX 20 24 3 -1
BITMAP
ffffe0
fffff0
fffff0
fffff0
fffff0
00f000
00f000
00f000
00f000
00f000
00f000
00f000
00f000
00f000
00f000
00f000
00f000
00f000
00f000
00f000
00f000
00f000
00f000
00f000
ENDCHAR
STARTCHAR U
ENCODING 85
SWIDTH 765 0
DWIDTH 28 0
BBX 23 25 3 -1
BITMAP
00000e
f0001e
f0001e
f0001e
f0001e
f0001e
f0001e
f0001e
f0001e
f0001e
f8003e
f8003e
f8003c
78003c
78003c
7c007c
7c007c
3e0078
3e00f8
1f01f0
1fc7f0
0fffe0
07ffc0
03ff80
00fe00
ENDCHAR
STARTCHAR V
ENCODING 86
SWIDTH 861 0
DWIDTH 31 0
BBX 25 25 3 -2
BITMAP
30000380
f0000380
f8000780
78000780
7c000f80
3e000f80
3e001f00
1f001f00
1f003e00
0f803e00
0f803c00
07c07c00
03c07800
03e0f800
01f0f800
01f1f000
00f9f000
00fbe000
007fe000
007fc000
003fc000
003f8000
001f8000
001f0000
000c0000
ENDCHAR
STARTCHAR W
ENCODING 87
SWIDTH 940 0
DWIDTH 34 0
BBX 25 24 3 -1
BITMAP
70000000
f0000000
f8000000
f8000080
78000080
7c000080
3c000180
3e000180
3e000180
1e000180
1f020380
1f078380
0f07c380
0f8fc780
078fe780
07dff780
07dfff80
03feff00
03fcff00
03fc7f00
01f87f00
01f83e00
01f01e00
01e01000
ENDCHAR
STARTCHAR X
ENCODING 88
SWIDTH 789 0
DWIDTH 28 0
BBX 25 27 2 -3
BITMAP
00000400
10000600
38000f80
fc001f00
7e003f00
3f007e00
1f807c00
0fc0f800
07e1f800
03f3f000
01fbe000
00ffc000
007fc000
003f8000
001f8000
003fc000
007fc000
00ffe000
01f9f000
01f0f800
03e0fc00
07c07e00
0fc03f00
1f801f00
1f000e00
0e000400
04000000
ENDCHAR
STARTCHAR Y
ENCODING 89
SWIDTH 753 0
DWIDTH 27 0
BBX 23 26 3 -2
BITMAP
f00018
fc003c
ff00fc
ff81fe
3fc3f8
07e7e0
03ffc0
01ff80
00ff00
007f00
007e00
003e00
003e00
003e00
003e00
003e00
003e00
003e00
003e00
003e00
003e00
003e00
003e00
003e00
003e00
001e00
ENDCHAR
STARTCHAR Z
ENCODING 90
SWIDTH 625 0
DWIDTH 22 0
BBX 19 26 2 -2
BITMAP
03ff80
ffff80
ffffc0
ffffc0
ffffc0
000f80
001f00
003f00
003e00
007c00
007c00
00f800
01f000
01f000
03e000
07c000
07c000
0f8000
1f0000
1f0000
3e0000
7c0000
7fffe0
ffffe0
7fffe0
7fffe0
ENDCHAR
STARTCHAR bracketleft
ENCODING 91
SWIDTH 393 0
DWIDTH 14 0
BBX 10 30 3 -5
BITMAP
ff00
ff00
f000
f000
f000
f000
f000
f000
f000
f000
f000
f000
f000
f000
f000
f800
f800
f800
f800
f800
f800
f800
7800
7800
7800
7800
7fc0
7fc0
7fc0
7f80
ENDCHAR
STARTCHAR backslash
ENCODING 92
SWIDTH 860 0
DWIDTH 31 0
BBX 25 30 3 -5
BITMAP
f8000000
7c000000
7e000000
3e000000
1f000000
0f800000
0fc00000
07e00000
03e00000
01f00000
00f80000
00fc0000
007e0000
003f0000
001f0000
000f8000
000fc000
0007e000
0003f000
0001f000
0000f800
0000fc00
00007e00
00003f00
00001f80
00000f80
00000780
00000780
00000380
00000100
ENDCHAR
STARTCHAR bracketright
ENCODING 93
SWIDTH 365 0
DWIDTH 13 0
BBX 10 30 2 -5
BITMAP
7f80
7fc0
07c0
07c0
07c0
07c0
07c0
07c0
07c0
07c0
07c0
07c0
07c0
07c0
07c0
07c0
07c0
07c0
07c0
07c0
07c0
07c0
07c0
07c0
0780
7f80
7f80
7f80
ffc0
7f80
ENDCHAR
STARTCHAR asciicircum
ENCODING 94
SWIDTH 566 0
DWIDTH 20 0
BBX 16 12 3 10
BITMAP
03c0
07e0
07f0
0ff0
1ff8
3f7c
3e7c
7c3e
f81f
f81e
700c
2000
ENDCHAR
STARTCHAR underscore
ENCODING 95
SWIDTH 812 0
DWIDTH 29 0
BBX 26 4 2 -2
BITMAP
ffffffc0
7fffffc0
7fffffc0
7fffffc0
ENDCHAR
STARTCHAR quoteleft
ENCODING 96
SWIDTH 321 0
DWIDTH 12 0
BBX 7 7 3 18
BITMAP
f0
f8
f8
7c
3e
3e
18
ENDCHAR
STARTCHAR a
ENCODING 97
SWIDTH 561 0
DWIDTH 20 0
BBX 17 15 2 0
BITMAP
01f000
07f000
1ff000
3ff000
7ff000
7cf000
f8f000
f8f000
f8f800
fcf800
7ffc00
3fff80
3fff80
0fdf80
038f80
ENDCHAR
STARTCHAR b
ENCODING 98
SWIDTH 575 0
DWIDTH 21 0
BBX 16 22 3 0
BITMAP
f000
f000
f000
f000
f000
f000
f000
fe00
ffe0
fff8
fffc
f7fe
f07f
f01f
f00f
f00f
f03f
f7ff
fffe
fffc
fff0
fe00
ENDCHAR
STARTCHAR c
ENCODING 99
SWIDTH 474 0
DWIDTH 17 0
BBX 13 19 2 -2
BITMAP
0060
01e0
03e0
0ff0
1fc0
1f80
3e00
7c00
7c00
f800
f000
f800
7e00
7fc0
3ff0
0ff8
07f8
00f8
0010
ENDCHAR
STARTCHAR d
ENCODING 100
SWIDTH 536 0
DWIDTH 19 0
BBX 15 23 2 0
BITMAP
001e
001e
001e
001e
001e
001e
001e
001e
007e
03fe
0ffe
1ffe
3fde
7f1e
fc1e
f81e
7c1e
7f1e
7ffe
1ffe
0ffe
03fe
003e
ENDCHAR
STARTCHAR e
ENCODING 101
SWIDTH 537 0
DWIDTH 19 0
BBX 16 15 2 0
BITMAP
00e0
07e0
1fe0
3fe0
7fe0
7de0
f9e0
f9e0
f800
7c00
3ffe
3ffe
1fff
07ff
01f0
ENDCHAR
STARTCHAR f
ENCODING 102
SWIDTH 484 0
DWIDTH 17 0
BBX 13 25 3 0
BITMAP
0060
0070
00f8
01f0
01f0
03e0
07c0
07c0
0f80
1fe0
ffe0
ffe0
ffe0
ffe0
0f00
0f00
0f00
0f00
0f00
0f00
0f00
0f00
0f00
0f00
0f00
ENDCHAR
STARTCHAR g
ENCODING 103
SWIDTH 527 0
DWIDTH 19 0
BBX 15 26 2 -11
BITMAP
00fe
03fe
0ffe
1ffe
3fde
7e1e
fc1e
f81e
fc1e
7f9e
3ffe
1ffe
07fe
01fe
001e
001e
003e
003e
007c
00fc
01f8
03f0
07e0
0fc0
0780
0300
ENDCHAR
STARTCHAR h
ENCODING 104
SWIDTH 549 0
DWIDTH 20 0
BBX 16 22 2 0
BITMAP
f800
f800
f800
f800
f800
7800
7800
7c00
7f00
7fc0
7ff0
7ff8
7bfc
78fe
783e
781e
7c1e
7c1e
7c1f
7c1f
7c0f
7c0f
ENDCHAR
STARTCHAR i
ENCODING 105
SWIDTH 248 0
DWIDTH 9 0
BBX 4 19 3 -1
BITMAP
f0
f0
f0
f0
00
00
f0
f0
f0
f0
f0
f0
f0
f0
f0
f0
f0
f0
e0
ENDCHAR
STARTCHAR j
ENCODING 106
SWIDTH 316 0
DWIDTH 11 0
BBX 7 26 2 -7
BITMAP
3e
3e
3e
1e
00
00
1c
1e
1e
1e
1e
1e
1e
1e
1e
1e
1e
1e
1e
1e
3e
3c
7c
f8
f8
70
ENDCHAR
STARTCHAR k
ENCODING 107
SWIDTH 484 0
DWIDTH 17 0
BBX 13 23 3 0
BITMAP
3000
f000
f000
f000
f000
f000
f060
f870
f8f0
f9f0
fbe0
ffe0
ffc0
7f80
7f00
7f80
7fc0
7fc0
7be0
79f0
78f8
78f0
7860
ENDCHAR
STARTCHAR l
ENCODING 108
SWIDTH 260 0
DWIDTH 9 0
BBX 5 23 3 -1
BITMAP
f0
f0
f0
f0
f0
f0
f8
f8
f8
f8
f8
f8
78
78
78
78
78
78
78
78
78
f8
78
ENDCHAR
STARTCHAR m
ENCODING 109
SWIDTH 705 0
DWIDTH 25 0
BBX 21 16 3 0
BITMAP
73c000
f7e700
ffffc0
ffffe0
ffffe0
fcfff0
f8fdf0
7878f0
7878f0
7878f0
7878f0
7c78f8
7c78f8
7c78f8
7c78f8
380878
ENDCHAR
STARTCHAR n
ENCODING 110
SWIDTH 501 0
DWIDTH 18 0
BBX 15 16 2 0
BITMAP
0080
39e0
fbf0
7ff0
7ff8
7ff8
7f7c
7c7c
3c7c
3c3c
3c3c
3c3c
3c3c
3c3c
3c3c
3c3e
ENDCHAR
STARTCHAR o
ENCODING 111
SWIDTH 546 0
DWIDTH 20 0
BBX 15 16 3 0
BITMAP
01e0
0ff8
1ffc
3ffc
7ffe
fc1e
f81e
f01e
f01e
f01e
f83e
7c7c
7ffc
3ff8
1ff0
07c0
ENDCHAR
STARTCHAR p
ENCODING 112
SWIDTH 574 0
DWIDTH 21 0
BBX 16 22 3 -7
BITMAP
fc00
ffe0
fff8
fffe
f7ff
f0ff
f00f
f01f
f03f
f8fe
fbfc
fff8
fff0
ffc0
fe00
f800
f800
f800
f800
f800
f800
f800
ENDCHAR
STARTCHAR q
ENCODING 113
SWIDTH 614 0
DWIDTH 22 0
BBX 18 24 3 -9
BITMAP
007f80
03ff80
0fff80
1fff80
3fc780
7f0780
fc0780
f80780
f00780
fc0780
ffff80
7fff80
3fff80
0fff80
002780
000780
0007c0
0007c0
0007c0
0007c0
0007c0
0007c0
0007c0
0007c0
ENDCHAR
STARTCHAR r
ENCODING 114
SWIDTH 414 0
DWIDTH 15 0
BBX 11 17 3 0
BITMAP
00c0
01c0
f3e0
ffe0
ffc0
ff80
ff00
fe00
f800
f800
f800
f800
f800
f800
f800
f800
f800
ENDCHAR
STARTCHAR s
ENCODING 115
SWIDTH 390 0
DWIDTH 14 0
BBX 10 20 2 -2
BITMAP
0200
0700
0f00
3f80
3f00
7e00
7c00
f800
fe00
7f00
3f80
1fc0
07c0
03c0
07c0
1fc0
3f80
1f00
0c00
0800
ENDCHAR
STARTCHAR t
ENCODING 116
SWIDTH 497 0
DWIDTH 18 0
BBX 14 24 2 -5
BITMAP
0780
0780
0780
0780
ff80
fffc
fffc
fffc
1ffc
07c0
07c0
07c0
07c0
07c0
07c0
07c0
07c0
03e0
03e0
01f0
01f0
00f8
0078
0060
ENDCHAR
STARTCHAR u
ENCODING 117
SWIDTH 563 0
DWIDTH 20 0
BBX 16 16 3 0
BITMAP
c00e
f01f
f01f
f01f
f81e
f81e
783e
783e
783c
7c3c
3c7c
3e7c
1ff8
1ff0
0fe0
07e0
ENDCHAR
STARTCHAR v
ENCODING 118
SWIDTH 553 0
DWIDTH 20 0
BBX 16 17 2 0
BITMAP
0008
300e
780f
fc1f
7c1f
3e3e
3e3e
1f3c
0ffc
0ffc
07f8
07f8
03f8
03f8
01f0
01f0
01f0
ENDCHAR
STARTCHAR w
ENCODING 119
SWIDTH 782 0
DWIDTH 28 0
BBX 24 16 3 0
BITMAP
20001c
70781f
f87c1e
f87e3e
7cfe3e
7eff7c
3eff7c
1ffff8
1ffff8
0fe7f8
0fe7f0
07e7f0
07e3e0
07c3e0
03c3e0
030000
ENDCHAR
STARTCHAR x
ENCODING 120
SWIDTH 615 0
DWIDTH 22 0
BBX 18 18 3 -2
BITMAP
600e00
f01f00
fc1f00
fe3e00
7f7e00
3ffc00
0ff800
07f800
03f800
03f800
03fc00
07fe00
0f9f00
1f9f80
1f0fc0
3e0780
1c0200
0c0000
ENDCHAR
STARTCHAR y
ENCODING 121
SWIDTH 559 0
DWIDTH 20 0
BBX 16 21 3 -5
BITMAP
4004
f00e
f83f
fc7f
fefe
3ff8
1ff0
0ff0
0fe0
07e0
07c0
03c0
03c0
03c0
03c0
03c0
03c0
03c0
03c0
03c0
03c0
ENDCHAR
STARTCHAR z
ENCODING 122
SWIDTH 524 0
DWIDTH 19 0
BBX 14 15 3 0
BITMAP
fffc
fffc
fffc
fffc
03f0
07e0
0fc0
1f80
3f00
7e00
fffc
fffc
fffc
fffc
fffc
ENDCHAR
STARTCHAR braceleft
ENCODING 123
SWIDTH 408 0
DWIDTH 15 0
BBX 11 30 2 -5
BITMAP
07c0
07c0
0f80
0f00
0f00
0f00
0f00
1f00
1f00
1f00
1f00
1f00
1e00
3e00
fe00
7c00
7e00
3f00
1f00
0f00
0f80
0f80
0780
0780
07c0
03e0
03e0
03e0
00c0
0040
ENDCHAR
STARTCHAR bar
ENCODING 124
SWIDTH 250 0
DWIDTH 9 0
BBX 6 30 2 -5
BITMAP
f8
78
78
78
78
78
78
78
78
78
78
78
78
78
78
78
78
78
78
78
78
78
78
78
78
7c
7c
7c
7c
70
ENDCHAR
STARTCHAR braceright
ENCODING 125
SWIDTH 408 0
DWIDTH 15 0
BBX 10 30 3 -5
BITMAP
f800
fc00
7e00
3e00
3e00
1e00
1e00
1e00
1e00
1e00
1e00
1f00
1f00
0f80
0fc0
0fc0
0fc0
1f80
1f00
3e00
3e00
3c00
7c00
7c00
7800
f800
f800
f000
e000
4000
ENDCHAR
STARTCHAR asciitilde
ENCODING 126
SWIDTH 613 0
DWIDTH 22 0
BBX 18 7 2 9
BITMAP
070000
1fc100
3ff7c0
7fffc0
ffff80
38ff80
001e00
ENDCHAR
STARTCHAR exclamdown
ENCODING 161
SWIDTH 258 0
DWIDTH 9 0
BBX 6 27 6 -9
BITMAP
3c
7c
7c
7c
3c
00
78
7c
7c
7c
7c
78
78
78
78
78
78
78
78
78
78
78
78
78
f8
f8
78
ENDCHAR
STARTCHAR cent
ENCODING 162
SWIDTH 474 0
DWIDTH 17 0
BBX 16 22 2 0
BITMAP
00f0
00f0
00f0
00f0
00fe
01ff
0ffe
1ff0
3fc0
7f00
7c00
fc00
f800
f800
fc00
ff00
7fff
3fff
0ffe
00f0
00f0
00f0
ENDCHAR
STARTCHAR sterling
ENCODING 163
SWIDTH 474 0
DWIDTH 17 0
BBX 20 23 2 0
BITMAP
00ff80
03ffc0
07ffe0
0fc3e0
0f80e0
0f0000
0f0000
0f0000
0f0000
0f0000
0f0000
7ff000
7ff800
fff800
fff000
0f0000
0f0000
0f0000
0f00f0
0ffff0
3ffff0
3ffff0
39ffe0
ENDCHAR
STARTCHAR currency
ENCODING 164
SWIDTH 750 0
DWIDTH 27 0
BBX 14 14 6 9
BITMAP
e01c
f83c
fffc
7ff8
3ff0
7cf8
7878
7878
7cf8
3ff0
7ff8
fffc
f83c
7018
ENDCHAR
STARTCHAR yen
ENCODING 165
SWIDTH 750 0
DWIDTH 27 0
BBX 18 21 4 0
BITMAP
f00180
f003c0
7807c0
7c0f80
3c1f00
1e3e00
1f7c00
0f7800
3fff00
3ffe00
7ffe00
01e000
01e000
1ffe00
3ffe00
3ffc00
01e000
01e000
07fc00
07fc00
07f800
ENDCHAR
STARTCHAR brokenbar
ENCODING 166
SWIDTH 250 0
DWIDTH 9 0
BBX 6 30 6 -5
BITMAP
f8
78
78
78
78
78
78
78
78
78
78
78
78
78
00
00
00
78
78
78
78
78
78
78
78
7c
7c
7c
7c
70
ENDCHAR
STARTCHAR section
ENCODING 167
SWIDTH 750 0
DWIDTH 27 0
BBX 19 31 4 -7
BITMAP
03f000
0ffe00
3fff80
7fffc0
7e07c0
7803c0
7c0000
3c0000
3fc000
7ff000
fffc00
f9fe00
f07f00
f81f80
f807c0
7c03c0
7e01e0
3f81e0
1fe1e0
0ff3e0
03ffc0
00ff80
003fc0
0007c0
7803c0
7e03c0
7f87c0
1fff80
0fff80
03ff00
00f800
ENDCHAR
STARTCHAR dieresis
ENCODING 168
SWIDTH 750 0
DWIDTH 27 0
BBX 8 7 8 15
BITMAP
e6
e7
e7
e7
e7
e7
c6
ENDCHAR
STARTCHAR copyright
ENCODING 169
SWIDTH 804 0
DWIDTH 29 0
BBX 23 23 3 -1
BITMAP
00ff00
07ffc0
1ffff0
3fc3f0
3e0078
7c7e3c
f9ff3e
fbff1e
f7e01e
f7c01e
f7800e
f7800e
f7801e
f7c39e
f3ef9e
79ff9e
7cff3c
3e3c7c
3f81f8
0ffff0
0fffe0
03ff00
007c00
ENDCHAR
STARTCHAR ordfeminine
ENCODING 170
SWIDTH 561 0
DWIDTH 20 0
BBX 17 19 6 4
BITMAP
01fe00
07fe00
1ffe00
3ffe00
7f1e00
7c1e00
f81e00
f81e00
f81e00
fc1e00
fffe00
7fff80
3fff80
0fef80
000000
3fff80
7fff80
7fff00
7fff00
ENDCHAR
STARTCHAR guillemotleft
ENCODING 171
SWIDTH 750 0
DWIDTH 27 0
BBX 21 22 3 -1
BITMAP
01c0e0
03e1e0
07c3e0
07c7c0
0f8f80
1f1f00
3e3f00
7c3e00
787c00
f07c00
f07800
f87c00
7c3e00
3e1f00
1f0f80
1f87c0
0fc3e0
07e1f0
03f1f0
01f8f8
007878
003010
ENDCHAR
STARTCHAR logicalnot
ENCODING 172
SWIDTH 750 0
DWIDTH 27 0
BBX 19 10 5 6
BITMAP
7fff80
ffffc0
7fffe0
7fffe0
0001e0
0001e0
0001e0
0001e0
0001c0
0001c0
ENDCHAR
STARTCHAR hyphen
ENCODING 173
SWIDTH 750 0
DWIDTH 27 0
BBX 16 4 5 9
BITMAP
7fff
ffff
fffe
7ffe
ENDCHAR
STARTCHAR registered
ENCODING 174
SWIDTH 804 0
DWIDTH 29 0
BBX 23 23 3 -1
BITMAP
00ff00
07ffc0
1ffff0
3fc3f0
3e0078
7cfc3c
f9fe3e
f9ff1e
f1c71e
f1c71e
f1fe0e
f1fe0e
f1dc1e
f1ce1e
f1c71e
79c71e
7d833c
3e007c
3f81f8
0ffff0
0fffe0
03ff00
007c00
ENDCHAR
STARTCHAR macron
ENCODING 175
SWIDTH 750 0
DWIDTH 27 0
BBX 9 4 9 18
BITMAP
ff00
ff80
ff80
ff80
ENDCHAR
STARTCHAR degree
ENCODING 176
SWIDTH 750 0
DWIDTH 27 0
BBX 10 10 9 12
BITMAP
3f00
7f80
7f80
f3c0
e1c0
e1c0
f380
ff80
7f00
1c00
ENDCHAR
STARTCHAR plusminus
ENCODING 177
SWIDTH 630 0
DWIDTH 23 0
BBX 19 22 2 0
BITMAP
003000
00f000
00f000
00f000
00f000
00f000
40f000
7fffe0
ffffe0
ffffe0
7fffe0
00f020
00f000
01f000
01f000
01f000
00f000
000000
3fffe0
7fffe0
7fffc0
7fffc0
ENDCHAR
STARTCHAR twosuperior
ENCODING 178
SWIDTH 750 0
DWIDTH 27 0
BBX 8 11 10 11
BITMAP
3c
fe
ff
1f
0e
1e
7c
f8
ff
ff
fe
ENDCHAR
STARTCHAR threesuperior
ENCODING 179
SWIDTH 750 0
DWIDTH 27 0
BBX 8 11 10 11
BITMAP
3c
fe
ff
0f
0f
3e
3e
0f
ff
fe
7c
ENDCHAR
STARTCHAR acute
ENCODING 180
SWIDTH 750 0
DWIDTH 27 0
BBX 6 7 10 15
BITMAP
1c
3c
38
78
70
f0
e0
ENDCHAR
STARTCHAR mu
ENCODING 181
SWIDTH 563 0
DWIDTH 20 0
BBX 16 21 3 -5
BITMAP
c00e
f01f
f01f
f01f
f01e
f01e
f01e
f01e
f01e
f01e
f83e
f83e
fc7e
ffff
ffff
f7ef
f000
f000
f000
f000
6000
ENDCHAR
STARTCHAR paragraph
ENCODING 182
SWIDTH 750 0
DWIDTH 27 0
BBX 22 28 2 -4
BITMAP
03fffc
0ffffc
1ffff8
3ffff8
7de1e0
79e1e0
f1e1e0
f1e1e0
f1e1e0
f1e1e0
f1e1e0
f1e1e0
f1e1e0
79e1e0
7fe1e0
3fe1e0
1fe1e0
01e1e0
01e1e0
01e1e0
01e1e0
01e1e0
01e1e0
01e1e0
01e1e0
01e1e0
07e0f8
07e078
ENDCHAR
STARTCHAR periodcentered
ENCODING 183
SWIDTH 750 0
DWIDTH 27 0
BBX 6 5 11 7
BITMAP
78
fc
fc
f8
70
ENDCHAR
STARTCHAR cedilla
ENCODING 184
SWIDTH 750 0
DWIDTH 27 0
BBX 8 5 9 -5
BITMAP
3e
3f
0f
7e
fc
ENDCHAR
STARTCHAR onesuperior
ENCODING 185
SWIDTH 750 0
DWIDTH 27 0
BBX 5 11 8 11
BITMAP
30
78
f8
f8
f8
38
38
38
38
38
38
ENDCHAR
STARTCHAR ordmasculine
ENCODING 186
SWIDTH 561 0
DWIDTH 20 0
BBX 15 19 6 4
BITMAP
01c0
07f8
1ffc
3ffc
7f3e
7c1e
f81e
f81e
f81e
fc3e
fffe
7ffc
3ff8
0ff0
0000
3ffc
7ffe
7ffe
7ffe
ENDCHAR
STARTCHAR guillemotright
ENCODING 187
SWIDTH 750 0
DWIDTH 27 0
BBX 21 22 4 -1
BITMAP
381c00
3c3e00
3e1f00
1f1f00
0f8f80
07c7c0
07e3e0
03e1f0
01f0f0
01f078
00f078
01f0f8
03e1f0
07c3e0
0f87c0
1f0fc0
3e1f80
7c3f00
7c7e00
f8fc00
f0f000
406000
ENDCHAR
STARTCHAR onequarter
ENCODING 188
SWIDTH 750 0
DWIDTH 27 0
BBX 20 22 4 0
BITMAP
380000
7c0060
fc00e0
fc01e0
3c03c0
3c07c0
3c0f80
3c1f00
3c1e00
3c3c00
3c7800
00f0f0
00f1f0
01e3f0
03c7f0
03cf70
079e70
0f1ff0
1f1ff0
3e0ff0
7c0070
780070
ENDCHAR
STARTCHAR onehalf
ENCODING 189
SWIDTH 750 0
DWIDTH 27 0
BBX 20 23 4 -1
BITMAP
380000
7c0060
fc00e0
fc01e0
3c03c0
3c07c0
3c0f80
3c1f00
3c1e00
3c3c00
3c7800
00f000
00f3e0
01e7f0
03cff0
03ce70
078cf0
0f01e0
1f03c0
3e0780
7c0fe0
780ff0
000ff0
ENDCHAR
STARTCHAR threequarters
ENCODING 190
SWIDTH 750 0
DWIDTH 27 0
BBX 20 22 4 0
BITMAP
3c0000
7f0060
ff00e0
c701e0
0e03c0
3e07c0
3f0f80
0f1f00
0f1e00
ef3c00
fe7800
7cf0f0
00f1f0
01e3f0
03c7f0
03cf70
079e70
0f1ff0
1f1ff0
3e0ff0
7c0070
780070
ENDCHAR
STARTCHAR questiondown
ENCODING 191
SWIDTH 444 0
DWIDTH 16 0
BBX 12 26 7 -10
BITMAP
03c0
03c0
03c0
03c0
03c0
0000
0000
0380
07c0
0fc0
0f80
1f00
3e00
7e00
7c00
7800
f800
7800
7c00
7e00
3f80
1fe0
0ff0
07f0
01f0
0060
ENDCHAR
STARTCHAR Agrave
ENCODING 192
SWIDTH 803 0
DWIDTH 29 0
BBX 24 28 3 -3
BITMAP
01e000
03f000
01f800
00fc00
007800
000000
003c00
007e00
00ff00
00ff00
01ff80
03ef80
03e780
07c7c0
07c3c0
07c3e0
0f87e0
0ffff0
1ffff0
1ffff8
3fff78
3f807c
7c003c
7c003e
f8003e
f8001f
70001e
00000c
ENDCHAR
STARTCHAR Aacute
ENCODING 193
SWIDTH 803 0
DWIDTH 29 0
BBX 24 28 2 -3
BITMAP
000780
000fc0
003f80
003e00
003c00
000000
003c00
007e00
00ff00
00ff00
01ff80
03ef80
03e780
07c7c0
07c3c0
07c3e0
0f87e0
0ffff0
1ffff0
1ffff8
3fff78
3f807c
7c003c
7c003e
f8003e
f8001f
70001e
00000c
ENDCHAR
STARTCHAR Acircumflex
ENCODING 194
SWIDTH 803 0
DWIDTH 29 0
BBX 24 28 3 -3
BITMAP
007e00
00ff00
01ff80
03e7c0
03c3c0
000000
003c00
007e00
00ff00
00ff00
01ff80
03ef80
03e780
07c7c0
07c3c0
07c3e0
0f87e0
0ffff0
1ffff0
1ffff8
3fff78
3f807c
7c003c
7c003e
f8003e
f8001f
70001e
00000c
ENDCHAR
STARTCHAR Atilde
ENCODING 195
SWIDTH 803 0
DWIDTH 29 0
BBX 24 28 3 -3
BITMAP
01f870
03fcf0
07fff0
07dfe0
0787c0
000000
003c00
007e00
00ff00
00ff00
01ff80
03ef80
03e780
07c7c0
07c3c0
07c3e0
0f87e0
0ffff0
1ffff0
1ffff8
3fff78
3f807c
7c003c
7c003e
f8003e
f8001f
70001e
00000c
ENDCHAR
STARTCHAR Adieresis
ENCODING 196
SWIDTH 803 0
DWIDTH 29 0
BBX 24 28 3 -3
BITMAP
01c380
01e7c0
03e7c0
03e7c0
01c380
000000
003c00
007e00
00ff00
00ff00
01ff80
03ef80
03e780
07c7c0
07c3c0
07c3e0
0f87e0
0ffff0
1ffff0
1ffff8
3fff78
3f807c
7c003c
7c003e
f8003e
f8001f
70001e
00000c
ENDCHAR
STARTCHAR Aring
ENCODING 197
SWIDTH 803 0
DWIDTH 29 0
BBX 24 28 3 -3
BITMAP
007e00
00ff00
01ff80
01e780
01e780
01ff80
00ff00
007e00
00ff00
00ff00
01ff80
03ef80
03e780
07c7c0
07c3c0
07c3e0
0f87e0
0ffff0
1ffff0
1ffff8
3fff78
3f807c
7c003c
7c003e
f8003e
f8001f
70001e
00000c
ENDCHAR
STARTCHAR AE
ENCODING 198
SWIDTH 474 0
DWIDTH 17 0
BBX 24 24 3 0
BITMAP
003ffe
00fffe
01fffe
03fffe
03fffe
07de00
079e00
0f9e00
0f1e00
1f1e00
1e1f00
1e1ff0
3e1ff8
3c1ff8
3c1ff8
3fbf00
7fff00
7fff00
7f7f00
780f00
f80ffe
f00fff
f00fff
f00ffe
ENDCHAR
STARTCHAR Ccedilla
ENCODING 199
SWIDTH 598 0
DWIDTH 22 0
BBX 18 29 2 -5
BITMAP
000700
003f00
00ff00
01ff00
07fc00
0fe000
0fc000
1f8000
3e0000
3e0000
7c0000
7c0000
780000
f80000
f80000
f80000
780000
7c0000
7e0000
3f8000
1fe000
0fffc0
07ffc0
01ffc0
007e00
001f00
001f00
00fe00
00fc00
ENDCHAR
STARTCHAR Egrave
ENCODING 200
SWIDTH 474 0
DWIDTH 17 0
BBX 13 25 6 0
BITMAP
3800
7e00
7f80
1f80
0700
0000
fff0
fff0
ffe0
ffe0
f000
f800
f800
f800
ff80
ff80
ff80
ff80
f800
f800
7800
7ff0
7ff0
7ff0
7ff8
ENDCHAR
STARTCHAR Eacute
ENCODING 201
SWIDTH 474 0
DWIDTH 17 0
BBX 13 25 8 0
BITMAP
01e0
07e0
0fc0
1f80
0e00
0000
fff0
fff0
ffe0
ffe0
f000
f800
f800
f800
ff80
ff80
ff80
ff80
f800
f800
7800
7ff0
7ff0
7ff0
7ff8
ENDCHAR
STARTCHAR Ecircumflex
ENCODING 202
SWIDTH 474 0
DWIDTH 17 0
BBX 13 25 8 0
BITMAP
0700
1f80
3fc0
7de0
79e0
0000
fff0
fff0
ffe0
ffe0
f000
f800
f800
f800
ff80
ff80
ff80
ff80
f800
f800
7800
7ff0
7ff0
7ff0
7ff8
ENDCHAR
STARTCHAR Edieresis
ENCODING 203
SWIDTH 474 0
DWIDTH 17 0
BBX 13 25 8 0
BITMAP
30c0
79e0
79e0
79e0
30c0
0000
fff0
fff0
ffe0
ffe0
f000
f800
f800
f800
ff80
ff80
ff80
ff80
f800
f800
7800
7ff0
7ff0
7ff0
7ff8
ENDCHAR
STARTCHAR Igrave
ENCODING 204
SWIDTH 242 0
DWIDTH 9 0
BBX 7 27 7 -2
BITMAP
70
f8
7c
3e
1e
0c
00
0e
1e
1e
1e
1e
1e
1e
1e
1e
1e
1e
1e
1e
1e
1e
1e
1e
1e
1e
1e
ENDCHAR
STARTCHAR Iacute
ENCODING 205
SWIDTH 242 0
DWIDTH 9 0
BBX 7 27 10 -2
BITMAP
1c
3e
7c
f8
f0
60
00
70
f0
f0
f0
f0
f0
f0
f0
f0
f0
f0
f0
f0
f0
f0
f0
f0
f0
f0
f0
ENDCHAR
STARTCHAR Icircumflex
ENCODING 206
SWIDTH 242 0
DWIDTH 9 0
BBX 9 27 8 -2
BITMAP
1c00
3e00
7f00
7780
e380
e300
0000
1c00
3c00
3c00
3c00
3c00
3c00
3c00
3c00
3c00
3c00
3c00
3c00
3c00
3c00
3c00
3c00
3c00
3c00
3c00
3c00
ENDCHAR
STARTCHAR Idieresis
ENCODING 207
SWIDTH 242 0
DWIDTH 9 0
BBX 11 26 7 -2
BITMAP
71c0
fbe0
fbe0
71c0
0000
0000
0e00
1e00
1e00
1e00
1e00
1e00
1e00
1e00
1e00
1e00
1e00
1e00
1e00
1e00
1e00
1e00
1e00
1e00
1e00
1e00
ENDCHAR
STARTCHAR Eth
ENCODING 208
SWIDTH 635 0
DWIDTH 23 0
BBX 21 23 2 -2
BITMAP
1fc000
1ff000
1ffe00
1fff80
1fffc0
1e1fe0
1e07e0
1e03f0
1e01f8
1e00f8
7fc0f8
ffc078
ffc078
7f80f8
1e00f0
1e03f0
1e07e0
1e1fe0
1effc0
1fff00
1ffe00
1ff800
1f8000
ENDCHAR
STARTCHAR Ntilde
ENCODING 209
SWIDTH 781 0
DWIDTH 28 0
BBX 24 26 3 -1
BITMAP
01f8e0
03ffe0
07ffc0
078f80
000000
7e001e
7f001e
ff801e
ffc01e
ffe01e
fbf01e
f9f81e
f8f81e
f87c1e
f83e1e
f83f1f
f81f9f
780fdf
7807ff
7803ff
7801ff
7800ff
78007f
78007f
78003f
78001f
ENDCHAR
STARTCHAR Ograve
ENCODING 210
SWIDTH 804 0
DWIDTH 29 0
BBX 24 27 3 -2
BITMAP
01f000
01fc00
007e00
001e00
000000
01ff00
07ffc0
0ffff0
1ffff8
3fc3fc
7f007c
7c003e
f8003e
f8001e
f0001f
f0000f
f8000f
f8001f
f8001f
7c003e
3e007e
3f80fc
1fe7f8
0ffff0
07ffe0
01ffc0
003f00
ENDCHAR
STARTCHAR Oacute
ENCODING 211
SWIDTH 804 0
DWIDTH 29 0
BBX 24 27 2 -2
BITMAP
0007c0
001f80
003f00
007c00
000000
01ff00
07ffc0
0ffff0
1ffff8
3fc3fc
7f007c
7c003e
f8003e
f8001e
f0001f
f0000f
f8000f
f8001f
f8001f
7c003e
3e007e
3f80fc
1fe7f8
0ffff0
07ffe0
01ffc0
003f00
ENDCHAR
STARTCHAR Ocircumflex
ENCODING 212
SWIDTH 804 0
DWIDTH 29 0
BBX 24 27 3 -2
BITMAP
007f00
01ff80
03f7c0
07c3e0
000000
01ff00
07ffc0
0ffff0
1ffff8
3fc3fc
7f007c
7c003e
f8003e
f8001e
f0001f
f0000f
f8000f
f8001f
f8001f
7c003e
3e007e
3f80fc
1fe7f8
0ffff0
07ffe0
01ffc0
003f00
ENDCHAR
STARTCHAR Otilde
ENCODING 213
SWIDTH 804 0
DWIDTH 29 0
BBX 24 27 3 -2
BITMAP
00fc70
03fff0
03ffe0
078fc0
000000
01ff00
07ffc0
0ffff0
1ffff8
3fc3fc
7f007c
7c003e
f8003e
f8001e
f0001f
f0000f
f8000f
f8001f
f8001f
7c003e
3e007e
3f80fc
1fe7f8
0ffff0
07ffe0
01ffc0
003f00
ENDCHAR
STARTCHAR Odieresis
ENCODING 214
SWIDTH 804 0
DWIDTH 29 0
BBX 24 27 3 -2
BITMAP
01e380
03e7c0
03e7c0
01c380
000000
01ff00
07ffc0
0ffff0
1ffff8
3fc3fc
7f007c
7c003e
f8003e
f8001e
f0001f
f0000f
f8000f
f8001f
f8001f
7c003e
3e007e
3f80fc
1fe7f8
0ffff0
07ffe0
01ffc0
003f00
ENDCHAR
STARTCHAR multiply
ENCODING 215
SWIDTH 750 0
DWIDTH 27 0
BBX 17 17 5 1
BITMAP
c00300
f00f80
f80f80
fc1f00
7e3e00
3f7c00
1ff800
0ff000
07e000
07f000
0ff800
1ffc00
3f7e00
7e3f00
fc1f00
f80f00
700000
ENDCHAR
STARTCHAR Oslash
ENCODING 216
SWIDTH 804 0
DWIDTH 29 0
BBX 25 24 3 -1
BITMAP
00ff8700
03ffef00
0fffff00
1ffffe00
3fc0fc00
3e00fc00
7c01fe00
f803fe00
f807fe00
f00fdf00
f03f8f00
f03f0f80
f8fe0f80
f8fc0f80
7df80f80
7ff00f80
3fe01f00
1fc03f00
1f807e00
3ffffc00
7ffff800
7bfff000
70ffe000
201c0000
ENDCHAR
STARTCHAR Ugrave
ENCODING 217
SWIDTH 765 0
DWIDTH 28 0
BBX 23 26 3 -1
BITMAP
03c000
03f000
01f800
00fc00
003c00
00001c
70001e
f0001e
f0001e
f0001e
f0001e
f0001e
f8003e
f8003e
f8003c
78003c
78003c
7c007c
7c007c
3e0078
3e00f8
1f01f0
1fc7f0
0fffe0
07ffc0
00ff00
ENDCHAR
STARTCHAR Uacute
ENCODING 218
SWIDTH 765 0
DWIDTH 28 0
BBX 23 26 3 -1
BITMAP
000f00
003f00
007e00
00fc00
00f000
00001c
70001e
f0001e
f0001e
f0001e
f0001e
f0001e
f8003e
f8003e
f8003c
78003c
78003c
7c007c
7c007c
3e0078
3e00f8
1f01f0
1fc7f0
0fffe0
07ffc0
00ff00
ENDCHAR
STARTCHAR Ucircumflex
ENCODING 219
SWIDTH 765 0
DWIDTH 28 0
BBX 23 26 3 -1
BITMAP
00f8e0
01fde0
03ffe0
07dfc0
078780
00001c
70001e
f0001e
f0001e
f0001e
f0001e
f0001e
f8003e
f8003e
f8003c
78003c
78003c
7c007c
7c007c
3e0078
3e00f8
1f01f0
1fc7f0
0fffe0
07ffc0
00ff00
ENDCHAR
STARTCHAR Udieresis
ENCODING 220
SWIDTH 765 0
DWIDTH 28 0
BBX 23 26 3 -1
BITMAP
018300
03c780
03c780
03c780
018300
00001c
70001e
f0001e
f0001e
f0001e
f0001e
f0001e
f8003e
f8003e
f8003c
78003c
78003c
7c007c
7c007c
3e0078
3e00f8
1f01f0
1fc7f0
0fffe0
07ffc0
00ff00
ENDCHAR
STARTCHAR Yacute
ENCODING 221
SWIDTH 753 0
DWIDTH 27 0
BBX 23 27 3 -2
BITMAP
000780
001f80
003f00
003e00
003800
f00018
fc003c
ff00fc
ff81fe
3fc3f8
07e7e0
03ffc0
01ff80
00ff00
007f00
007e00
003e00
003e00
003e00
003e00
003e00
003e00
003e00
003e00
003e00
003e00
001c00
ENDCHAR
STARTCHAR Thorn
ENCODING 222
SWIDTH 583 0
DWIDTH 21 0
BBX 19 25 5 -1
BITMAP
ff0000
ff0000
7e0000
3c0000
3c0000
3ff000
3ffe00
3fff80
3fffc0
3c0fc0
3c03e0
3c01e0
3c01e0
3c03e0
3c03e0
3c07c0
3fffc0
3fff80
3ffe00
3ff800
3e0000
3e0000
7f0000
ff8000
ff8000
ENDCHAR
STARTCHAR germandbls
ENCODING 223
SWIDTH 750 0
DWIDTH 27 0
BBX 18 24 5 -1
BITMAP
0fc000
1ff000
3ff800
3ffc00
7c3e00
781e00
781e00
781e00
787c00
79f800
78fc00
783e00
781f00
780f80
780780
7803c0
7803c0
7803c0
7803c0
7803c0
78ffc0
78ff80
f8ff00
f03c00
ENDCHAR
STARTCHAR agrave
ENCODING 224
SWIDTH 561 0
DWIDTH 20 0
BBX 17 23 6 0
BITMAP
180000
3e0000
3f0000
1f8000
0fc000
07c000
018000
000000
01f000
07f000
1ff000
3ff000
7ff000
7cf000
f8f000
f8f000
f8f800
fcf800
7ffc00
3fff80
3fff80
0fdf80
038f80
ENDCHAR
STARTCHAR aacute
ENCODING 225
SWIDTH 561 0
DWIDTH 20 0
BBX 17 23 6 0
BITMAP
000e00
003e00
007c00
00fc00
00f800
01f000
01e000
000000
01f000
07f000
1ff000
3ff000
7ff000
7cf000
f8f000
f8f000
f8f800
fcf800
7ffc00
3fff80
3fff80
0fdf80
038f80
ENDCHAR
STARTCHAR acircumflex
ENCODING 226
SWIDTH 561 0
DWIDTH 20 0
BBX 17 23 6 0
BITMAP
01f000
07f800
0ffc00
1ffe00
1f3e00
3e1e00
1c0c00
000000
01f000
07f000
1ff000
3ff000
7ff000
7cf000
f8f000
f8f000
f8f800
fcf800
7ffc00
3fff80
3fff80
0fdf80
038f80
ENDCHAR
STARTCHAR atilde
ENCODING 227
SWIDTH 561 0
DWIDTH 20 0
BBX 17 23 6 0
BITMAP
1f0700
3fcf00
7fef00
ffff00
f9fe00
f0fc00
603000
000000
01f000
07f000
1ff000
3ff000
7ff000
7cf000
f8f000
f8f000
f8f800
fcf800
7ffc00
3fff80
3fff80
0fdf80
038f80
ENDCHAR
STARTCHAR adieresis
ENCODING 228
SWIDTH 561 0
DWIDTH 20 0
BBX 17 22 6 0
BITMAP
1c3800
3e7c00
3e7c00
3e7c00
1c3800
000000
000000
01f000
07f000
1ff000
3ff000
7ff000
7cf000
f8f000
f8f000
f8f800
fcf800
7ffc00
3fff80
3fff80
0fdf80
038f80
ENDCHAR
STARTCHAR aring
ENCODING 229
SWIDTH 561 0
DWIDTH 20 0
BBX 17 24 6 0
BITMAP
03e000
0ff800
0ff800
1f7c00
1e3c00
1e3c00
1f7c00
0ff800
07f000
03e000
07f800
1ff800
3ff800
7ff800
7cf800
f8f800
f8f800
f8f800
fcf800
7ffc00
3fff80
3fff80
0fdf80
038f80
ENDCHAR
STARTCHAR ae
ENCODING 230
SWIDTH 750 0
DWIDTH 27 0
BBX 25 19 2 0
BITMAP
0f80f000
3fe3fc00
7ff7fe00
fffffe00
f0ff1f00
007e0f00
003c0780
0fffff80
3fffff80
7fffff80
ffffff00
f87c0000
f03c0000
f03c0000
f83e0f00
fc7fbf00
7ffffe00
3ffffc00
0fc7f000
ENDCHAR
STARTCHAR ccedilla
ENCODING 231
SWIDTH 474 0
DWIDTH 17 0
BBX 13 22 6 -5
BITMAP
0060
01e0
03e0
0ff0
1fc0
1f80
3e00
7c00
7c00
f800
f000
f800
7e00
7fc0
3ff0
0ff8
07f8
01e0
00f0
00f8
07f8
03f0
ENDCHAR
STARTCHAR egrave
ENCODING 232
SWIDTH 537 0
DWIDTH 19 0
BBX 16 22 4 0
BITMAP
1c00
3f00
3f80
0fc0
07e0
01c0
0000
03e0
0ff8
3ffc
7ffe
7c3e
f00f
ffff
ffff
fffe
f800
7e00
7fbe
3ffe
0ffc
03f0
ENDCHAR
STARTCHAR eacute
ENCODING 233
SWIDTH 537 0
DWIDTH 19 0
BBX 16 23 4 0
BITMAP
003c
007e
00fc
01f8
03f0
03e0
01c0
0000
03e0
0ff8
3ffc
7ffe
7c3e
f00f
ffff
ffff
fffe
f800
7e00
7fbe
3ffe
0ffc
03f0
ENDCHAR
STARTCHAR ecircumflex
ENCODING 234
SWIDTH 537 0
DWIDTH 19 0
BBX 16 23 7 0
BITMAP
01e0
07f0
0ff8
1ffc
3f3e
3e1e
1c0e
0000
03e0
0ff8
3ffc
7ffe
7c3e
f00f
ffff
ffff
fffe
f800
7e00
7fbe
3ffe
0ffc
03f0
ENDCHAR
STARTCHAR edieresis
ENCODING 235
SWIDTH 537 0
DWIDTH 19 0
BBX 16 20 9 0
BITMAP
1c38
3e7c
3e7c
1c38
0000
03e0
0ff8
3ffc
7ffe
7c3e
f00f
ffff
ffff
fffe
f800
7e00
7fbe
3ffe
0ffc
03f0
ENDCHAR
STARTCHAR igrave
ENCODING 236
SWIDTH 248 0
DWIDTH 9 0
BBX 7 21 13 -1
BITMAP
60
f0
f8
7c
3e
1e
0c
00
0c
1e
1e
1e
1e
1e
1e
1e
1e
1e
1e
1e
1c
ENDCHAR
STARTCHAR iacute
ENCODING 237
SWIDTH 248 0
DWIDTH 9 0
BBX 7 21 12 -1
BITMAP
0c
1e
3e
7c
f8
f0
60
00
60
f0
f0
f0
f0
f0
f0
f0
f0
f0
f0
f0
e0
ENDCHAR
STARTCHAR icircumflex
ENCODING 238
SWIDTH 248 0
DWIDTH 9 0
BBX 10 21 9 -1
BITMAP
1e00
3f00
7f80
ffc0
f3c0
e1c0
0000
0000
0c00
1e00
1e00
1e00
1e00
1e00
1e00
1e00
1e00
1e00
1e00
1e00
1c00
ENDCHAR
STARTCHAR idieresis
ENCODING 239
SWIDTH 248 0
DWIDTH 9 0
BBX 11 19 9 -1
BITMAP
31c0
fbe0
fbc0
71c0
0000
0000
0c00
1e00
1e00
1e00
1e00
1e00
1e00
1e00
1e00
1e00
1e00
1e00
1c00
ENDCHAR
STARTCHAR eth
ENCODING 240
SWIDTH 546 0
DWIDTH 20 0
BBX 15 24 8 0
BITMAP
f87c
fdfc
7ff8
1fe0
3ff0
7ff0
7cf8
7878
01fc
0ffc
1ffe
3ffe
7ffe
fc1e
f81e
f01e
f01e
f01e
f83e
7c7c
7ffc
3ff8
1ff0
07c0
ENDCHAR
STARTCHAR ntilde
ENCODING 241
SWIDTH 501 0
DWIDTH 18 0
BBX 16 23 4 0
BITMAP
1f0e
3f9e
7ffe
fffc
fbf8
70f0
0000
0040
1cf0
7df8
3ff8
3ffc
3ffc
3fbe
3e3e
1e3e
1e1e
1e1e
1e1e
1e1e
1e1e
1e1e
1e1f
ENDCHAR
STARTCHAR ograve
ENCODING 242
SWIDTH 546 0
DWIDTH 20 0
BBX 15 24 3 0
BITMAP
0c00
1f00
1f80
0fc0
07e0
03e0
00e0
0000
01e0
0ff8
1ffc
3ffc
7ffe
fc1e
f81e
f01e
f01e
f01e
f83e
7c7c
7ffc
3ff8
1ff0
07c0
ENDCHAR
STARTCHAR oacute
ENCODING 243
SWIDTH 546 0
DWIDTH 20 0
BBX 15 24 3 0
BITMAP
0018
007c
00fc
01f8
03f0
03e0
01c0
0000
01e0
0ff8
1ffc
3ffc
7ffe
fc1e
f81e
f01e
f01e
f01e
f83e
7c7c
7ffc
3ff8
1ff0
07c0
ENDCHAR
STARTCHAR ocircumflex
ENCODING 244
SWIDTH 546 0
DWIDTH 20 0
BBX 15 23 3 0
BITMAP
03e0
0ff0
1ff8
3f7c
3c3c
381c
0000
01e0
0ff8
1ffc
3ffc
7ffe
fc1e
f81e
f01e
f01e
f01e
f83e
7c7c
7ffc
3ff8
1ff0
07c0
ENDCHAR
STARTCHAR otilde
ENCODING 245
SWIDTH 546 0
DWIDTH 20 0
BBX 15 22 3 0
BITMAP
0f0e
3fde
7ffe
fbfc
f0f8
0000
01e0
0ff8
1ffc
3ffc
7ffe
fc1e
f81e
f01e
f01e
f01e
f83e
7c7c
7ffc
3ff8
1ff0
07c0
ENDCHAR
STARTCHAR odieresis
ENCODING 246
SWIDTH 546 0
DWIDTH 20 0
BBX 15 22 3 0
BITMAP
3860
7cf0
7cf8
78f0
3070
0000
01e0
0ff8
1ffc
3ffc
7ffe
fc1e
f81e
f01e
f01e
f01e
f83e
7c7c
7ffc
3ff8
1ff0
07c0
ENDCHAR
STARTCHAR divide
ENCODING 247
SWIDTH 608 0
DWIDTH 22 0
BBX 18 19 2 0
BITMAP
006000
01f000
01f800
01f000
00e000
000000
000000
7fffc0
ffffc0
ffffc0
ffffc0
ffff00
000000
000000
01c000
01e000
03e000
03e000
01c000
ENDCHAR
STARTCHAR oslash
ENCODING 248
SWIDTH 546 0
DWIDTH 20 0
BBX 16 16 3 0
BITMAP
01e6
0fff
1fff
3fff
7f7e
fcff
f9ff
f3ef
f7cf
ff9f
ff1f
7e7e
7ffc
fff8
fff0
77c0
ENDCHAR
STARTCHAR ugrave
ENCODING 249
SWIDTH 563 0
DWIDTH 20 0
BBX 16 24 3 0
BITMAP
0c00
1f00
1f80
0fc0
07e0
03e0
01c0
0000
c00e
f01f
f01f
f01f
f81e
f81e
783e
783e
783c
7c3c
3c7c
3e7c
1ff8
1ff0
0fe0
07e0
ENDCHAR
STARTCHAR uacute
ENCODING 250
SWIDTH 563 0
DWIDTH 20 0
BBX 16 24 3 0
BITMAP
0038
00fc
01f8
03f0
03e0
07c0
0780
0300
c00e
f01f
f01f
f01f
f81e
f81e
783e
783e
783c
7c3c
3c7c
3e7c
1ff8
1ff0
0fe0
07e0
ENDCHAR
STARTCHAR ucircumflex
ENCODING 251
SWIDTH 563 0
DWIDTH 20 0
BBX 16 24 3 0
BITMAP
01e0
07f0
0ff8
1ffc
3e7e
3c3e
181c
0000
c00e
f01f
f01f
f01f
f81e
f81e
783e
783e
783c
7c3c
3c7c
3e7c
1ff8
1ff0
0fe0
07e0
ENDCHAR
STARTCHAR udieresis
ENCODING 252
SWIDTH 563 0
DWIDTH 20 0
BBX 16 22 3 0
BITMAP
1c38
3e7c
3e7c
3e7c
1830
0000
c00e
f01f
f01f
f01f
f81e
f81e
783e
783e
783c
7c3c
3c7c
3e7c
1ff8
1ff0
0fe0
07e0
ENDCHAR
STARTCHAR yacute
ENCODING 253
SWIDTH 559 0
DWIDTH 20 0
BBX 16 28 3 -5
BITMAP
0038
0078
00f0
01f0
03e0
03c0
0380
4004
f00e
f83f
fc7f
fefe
3ff8
1ff0
0ff0
0fe0
07e0
07c0
03c0
03c0
03c0
03c0
03c0
03c0
03c0
03c0
03c0
03c0
ENDCHAR
STARTCHAR thorn
ENCODING 254
SWIDTH 583 0
DWIDTH 21 0
BBX 19 29 3 -6
BITMAP
7e0000
fe0000
fe0000
3c0000
3c0000
3ff800
3ffe00
3fff80
3fffc0
3c1fc0
3c03e0
3c03e0
3c01e0
3c01e0
3c03e0
3c07c0
3c0fc0
3c3f80
3fff00
3ffe00
3ff800
3fc000
3e0000
3c0000
3c0000
3c0000
ffc000
ff8000
7f0000
ENDCHAR
STARTCHAR ydieresis
ENCODING 255
SWIDTH 559 0
DWIDTH 20 0
BBX 16 28 3 -5
BITMAP
0010
3c38
3e7c
3e7c
1c38
0000
0000
4004
f00e
f83f
fc7f
fefe
3ff8
1ff0
0ff0
0fe0
07e0
07c0
03c0
03c0
03c0
03c0
03c0
03c0
03c0
03c0
03c0
03c0
ENDCHAR
ENDFONT
